<svg width="512" height="512" viewBox="0 0 512 512" fill="none" xmlns="http://www.w3.org/2000/svg">
<rect width="512" height="512" fill="#F6F5F4"/>
<path d="M109.897 354.7V369H11.7473V354.7H45.2223V159.05H11.7473V144.75H100.472C154.422 144.75 193.747 161.65 193.747 202.275C193.747 234.125 166.447 253.3 131.672 260.125L230.472 369H190.172L97.8723 263.05H76.4223V354.7H109.897ZM76.4223 159.05V249.725H100.147C135.572 249.725 160.922 234.775 160.922 203.575C160.922 172.375 135.572 159.05 100.147 159.05H76.4223ZM424.939 256.875C424.939 323.5 368.714 372.25 308.589 372.25C248.464 372.25 192.239 323.5 192.239 256.875C192.239 190.25 248.464 141.5 308.589 141.5C368.714 141.5 424.939 190.25 424.939 256.875ZM227.339 256.875C227.339 315.7 267.639 357.3 308.589 357.3C349.539 357.3 389.839 315.7 389.839 256.875C389.839 198.05 349.539 156.775 308.589 156.775C267.639 156.775 227.339 198.05 227.339 256.875ZM402.065 144.75H500.215V159.05H466.74V354.7H500.215V369H402.065V354.7H435.54V159.05H402.065V144.75Z" fill="black"/>
</svg>
